<?xml version="1.0" encoding="UTF-8" standalone="no"?><!DOCTYPE svg PUBLIC "-//W3C//DTD SVG 1.1//EN" "http://www.w3.org/Graphics/SVG/1.1/DTD/svg11.dtd"><svg width="100%" height="100%" viewBox="0 0 24 24" version="1.1" xmlns="http://www.w3.org/2000/svg" xmlns:xlink="http://www.w3.org/1999/xlink" xml:space="preserve" xmlns:serif="http://www.serif.com/" style="fill-rule:evenodd;clip-rule:evenodd;stroke-linecap:round;stroke-linejoin:round;"><rect x="7" y="5" width="3" height="14" style="fill:#f9b419;"/><path d="M11,20l-9,0" style="fill:none;fill-rule:nonzero;stroke:#000;stroke-width:2px;"/><path d="M11,4.561l0,16.158c0,0.548 0.452,1 1,1c0.082,0 0.163,-0.01 0.242,-0.03l6.758,-1.689l0,-14.438c-0,-0.915 -0.628,-1.718 -1.515,-1.94l-4,-1c-0.159,-0.04 -0.322,-0.06 -0.485,-0.06c-1.097,0 -1.999,0.902 -2,1.999Z" style="fill:none;fill-rule:nonzero;stroke:#000;stroke-width:2px;"/><path d="M11,4l-3,0c-1.097,0 -2,0.903 -2,2l0,14" style="fill:none;fill-rule:nonzero;stroke:#000;stroke-width:2px;"/><path d="M14,12l0.01,0" style="fill:none;fill-rule:nonzero;stroke:#000;stroke-width:2px;"/><path d="M22,20l-3,0" style="fill:none;fill-rule:nonzero;stroke:#000;stroke-width:2px;"/></svg>